<svg xmlns="http://www.w3.org/2000/svg" width="600" height="400" viewBox="0 0 600 400">
  <defs>
    <linearGradient id="bg" x1="0%" y1="0%" x2="100%" y2="100%">
      <stop offset="0%" stop-color="#0f172a"/>
      <stop offset="100%" stop-color="#1e293b"/>
    </linearGradient>
    <linearGradient id="accent" x1="0%" y1="0%" x2="100%" y2="100%">
      <stop offset="0%" stop-color="#6366f1"/>
      <stop offset="100%" stop-color="#06b6d4"/>
    </linearGradient>
  </defs>
  <rect width="600" height="400" fill="url(#bg)"/>
  <g opacity="0.04" stroke="#fff" stroke-width="0.5">
    <line x1="0" y1="50" x2="600" y2="50"/><line x1="0" y1="100" x2="600" y2="100"/>
    <line x1="0" y1="150" x2="600" y2="150"/><line x1="0" y1="200" x2="600" y2="200"/>
    <line x1="0" y1="250" x2="600" y2="250"/><line x1="0" y1="300" x2="600" y2="300"/>
    <line x1="0" y1="350" x2="600" y2="350"/><line x1="50" y1="0" x2="50" y2="400"/>
    <line x1="100" y1="0" x2="100" y2="400"/><line x1="150" y1="0" x2="150" y2="400"/>
    <line x1="200" y1="0" x2="200" y2="400"/><line x1="250" y1="0" x2="250" y2="400"/>
    <line x1="300" y1="0" x2="300" y2="400"/><line x1="350" y1="0" x2="350" y2="400"/>
    <line x1="400" y1="0" x2="400" y2="400"/><line x1="450" y1="0" x2="450" y2="400"/>
    <line x1="500" y1="0" x2="500" y2="400"/><line x1="550" y1="0" x2="550" y2="400"/>
  </g>
  <text x="300" y="160" text-anchor="middle" font-family="Inter, sans-serif" font-size="28" font-weight="800" fill="#f1f5f9">DevForge</text>
  <text x="300" y="195" text-anchor="middle" font-family="Inter, sans-serif" font-size="16" font-weight="600" fill="url(#accent)">Maintenance & Support</text>
  <text x="300" y="230" text-anchor="middle" font-family="Inter, sans-serif" font-size="11" fill="#94a3b8" max-width="400">Ongoing maintenance, updates and technical support</text>
  <circle cx="300" cy="290" r="40" fill="none" stroke="url(#accent)" stroke-width="1.5" opacity="0.3"/>
  <circle cx="300" cy="290" r="25" fill="none" stroke="url(#accent)" stroke-width="1" opacity="0.5"/>
  <circle cx="300" cy="290" r="8" fill="url(#accent)" opacity="0.6"/>
  <rect x="225" y="340" width="150" height="24" rx="12" fill="none" stroke="#6366f1" stroke-width="1" opacity="0.4"/>
  <text x="300" y="357" text-anchor="middle" font-family="Inter, sans-serif" font-size="10" fill="#6366f1" font-weight="600">DEVFORGE</text>
</svg>